<svg width="192" height="58" viewBox="0 0 192 58" fill="none" xmlns="http://www.w3.org/2000/svg">
  <path d="M37.8531 27.6423C37.8531 22.8805 35.8544 19.5902 32.0347 19.5902C27.3322 19.5902 24.1584 23.5284 23.9827 29.876V44.9237H18.9265V27.6423C18.9265 22.8805 16.9871 19.5902 13.1654 19.5902C8.40568 19.5902 5.05399 23.7041 5.05399 30.3461V44.9237H0V15.5356H5.05611V20.0602C6.76054 16.9457 9.93437 14.9469 13.9318 14.9469C18.34 14.9469 21.5139 17.2972 22.9833 21.2374C24.5691 17.4157 28.1558 14.9469 32.6233 14.9469C39.0303 14.9469 42.9092 19.6495 42.9092 26.88V44.9258H37.8531V27.6423ZM46.6187 30.2275C46.6187 21.7625 53.0849 14.9448 62.0178 14.9448C70.9507 14.9448 77.3598 21.7625 77.3598 30.2275C77.3598 38.6925 70.8364 45.5102 62.0178 45.5102C53.1993 45.5102 46.6187 38.6925 46.6187 30.2275ZM72.1872 30.2275C72.1872 24.3499 68.1305 19.6474 62.0178 19.6474C55.9052 19.6474 51.7913 24.3499 51.7913 30.2275C51.7913 36.1051 55.9052 40.8076 62.0178 40.8076C68.1305 40.8076 72.1872 36.1051 72.1872 30.2275ZM81.0714 0.839384H86.1275V44.9237H81.0714V0.839384ZM151.203 15.5292H156.259V21.2311C157.375 17.4687 161.137 15.2349 164.487 15.2349C165.251 15.2349 166.015 15.2942 166.78 15.4699V20.7018C165.84 20.291 165.016 20.2317 164.017 20.2317C160.313 20.2317 156.259 23.4648 156.259 30.3418V44.9237H151.203V15.5292ZM175.658 36.2258V20.1809H169.426V15.5377H175.658V7.36702H180.712V15.5377H189.176V20.1809H180.712V35.58C180.712 39.3425 182.357 40.5769 185.59 40.5769C186.824 40.5769 188.234 40.4011 189.174 39.9882V44.515C187.94 44.9258 186.471 45.2201 184.65 45.2201C179.477 45.2201 175.658 42.3406 175.658 36.2258ZM147.298 29.1583C146.807 21.7562 140.868 15.6774 133.485 15.0189C128.833 14.6039 124.321 16.2914 121.107 19.6495C120.769 20.0031 120.313 20.1979 119.824 20.1979C119.335 20.1979 118.88 20.0031 118.541 19.6495C115.327 16.2914 110.815 14.6039 106.166 15.0189C102.812 15.3175 99.7566 16.7382 97.3746 18.8915V15.5356H92.3185V29.9311C92.3185 29.9777 92.3185 30.0242 92.3185 30.0708V57.2104H97.3746V41.5275C100.157 44.0217 103.796 45.4339 107.555 45.4339C111.616 45.4339 115.435 43.8523 118.308 40.9791C119.145 40.1428 120.506 40.1428 121.34 40.9791C124.213 43.8523 128.033 45.4339 132.094 45.4339C136.155 45.4339 140.352 43.6745 143.223 40.6044C146.134 37.492 147.582 33.4267 147.298 29.1583ZM139.528 37.1468C137.582 39.226 134.942 40.3736 132.094 40.3736C129.246 40.3736 126.837 39.3171 124.919 37.4009C123.515 35.9971 121.668 35.2942 119.824 35.2942C117.98 35.2942 116.134 35.9971 114.73 37.4009C112.812 39.3171 110.265 40.3736 107.555 40.3736C104.707 40.3736 102.067 39.2281 100.121 37.1468C98.1771 35.0676 97.2094 32.3512 97.4 29.4928C97.7282 24.5531 101.69 20.4964 106.614 20.0581C109.725 19.7807 112.742 20.9071 114.887 23.1494C116.189 24.5087 117.942 25.2582 119.824 25.2582C121.707 25.2582 123.46 24.5087 124.762 23.1494C126.909 20.9071 129.924 19.7807 133.034 20.0581C137.959 20.4964 141.92 24.5531 142.249 29.4928C142.439 32.349 141.472 35.0676 139.528 37.1447V37.1468Z" fill="#201232"/>
</svg>
